<svg id="coming-soon-object" xmlns="http://www.w3.org/2000/svg" xmlns:xlink="http://www.w3.org/1999/xlink" 
	shape-rendering="geometricPrecision" text-rendering="geometricPrecision" width="110px" height="110px" viewBox="0 0 110 110" 
	style="enable-background:new 0 0 110 110;" xml:space="preserve">

	<style type="text/css">
		#rotation-group {
				animation: rotateInfinite 9000ms linear infinite normal forwards
			}
			@keyframes rotateInfinite {
				0% {
					transform: translate(55px,55px) rotate(0deg);
					}
				100% {
					transform: translate(55px,55px) rotate(360deg);
					}
			}
	</style>

	<path fill="#ffffff" d="M55,2c29.2,0,53,23.8,53,53s-23.8,53-53,53S2,84.2,2,55S25.8,2,55,2 M55,0C24.6,0,0,24.6,0,55s24.6,55,55,55
		s55-24.6,55-55S85.4,0,55,0L55,0z"/>
	<path fill="#ffffff" d="M50.7,53.9h-4.6l-4.7-10.8c-0.2-0.6-0.2-1.1-0.1-1.7c0.2-0.5,0.6-0.9,1.1-1.1c0.6-0.2,1.1-0.2,1.7-0.1
		c0.5,0.2,0.9,0.6,1.1,1.1L50.7,53.9z M47,56.1h4.6h1.7c0.8,0,1.4,0.3,1.9,0.8c0.5,0.5,0.8,1.1,0.8,1.9c0,0.8-0.3,1.4-0.8,1.9
		c-0.5,0.5-1.1,0.8-1.9,0.8h-3.7c-0.7,0-1,0.4-1.1,1.1c0,0.7,0.4,1,1.1,1.1h3.7c1.4,0,2.5-0.5,3.4-1.4c0.9-0.9,1.3-2,1.4-3.4v-0.1
		c0.6,0.4,1.3,0.6,2.1,0.6c0.9,0,1.7-0.2,2.4-0.7c0.3,0.8,0.8,1.5,1.5,2.1c0.7,0.5,1.5,0.8,2.5,0.8c0.8,0,1.5-0.2,2.1-0.6v0.6
		c-0.1,3-1.1,5.5-3.1,7.5s-4.5,3-7.5,3.1h-4.1c-2.9,0-5.4-1.1-7.5-3.1l-0.7-0.7c-1.6-1.7-2.5-3.7-2.5-6v-1.8c0-1.1,0.4-2.1,1.1-2.9
		C45.1,56.7,46,56.3,47,56.1L47,56.1z M55.5,38.6c0.4,0.4,0.6,0.9,0.6,1.5v13.8h-4.2V40.1c0-0.6,0.2-1.1,0.6-1.5s0.9-0.6,1.5-0.6
		C54.5,38,55.1,38.2,55.5,38.6z M61.8,49.2c0.4,0.4,0.6,0.9,0.6,1.5V55c0,0.6-0.2,1.1-0.6,1.5s-0.9,0.6-1.5,0.6
		c-0.6,0-1.1-0.2-1.5-0.6s-0.6-0.9-0.6-1.5v-4.2c0-0.6,0.2-1.1,0.6-1.5s0.9-0.6,1.5-0.6C60.9,48.6,61.4,48.8,61.8,49.2z M65.2,51.3
		c0.4-0.4,0.9-0.6,1.5-0.6c0.6,0,1.1,0.2,1.5,0.6s0.6,0.9,0.6,1.5v4.2c0,0.6-0.2,1.1-0.6,1.5s-0.9,0.6-1.5,0.6
		c-0.6,0-1.1-0.2-1.5-0.6s-0.6-0.9-0.6-1.5v-4.2C64.6,52.3,64.8,51.7,65.2,51.3z"/>

	<g id="rotation-group" transform="translate(55,55) rotate(360)">
		<path fill="#ffffff" transform="translate(-55,-55)" d="M60.3,18.9l1.8-8.3l1,0.2l-0.8,3.7l3.9,0.8l0.8-3.7l1,0.2l-1.8,8.3l-1-0.2l0.8-3.7l-3.9-0.8l-0.8,3.7L60.3,18.9
			z M67.8,20.8l3.4-7.8l4.8,2.1l-0.4,0.8l-3.9-1.7l-1.1,2.6l3.5,1.5l-0.4,0.8l-3.5-1.5l-1.1,2.6L73,22l-0.4,0.8L67.8,20.8z M73.7,23.5
			l4.7-7l0.8,0.6l-4.2,6.3l3.6,2.4l-0.5,0.8L73.7,23.5z M79,27.2l5.9-6.1l0.7,0.7l-5.2,5.4l3.1,3l-0.6,0.7L79,27.2z M85,34.1
			c-0.6-0.8-0.8-1.6-0.7-2.5c0.1-0.8,0.7-1.6,1.6-2.2l1.6-1.1c0.9-0.6,1.8-0.9,2.6-0.7c0.8,0.2,1.5,0.6,2.1,1.5
			c0.6,0.8,0.8,1.7,0.7,2.5c-0.1,0.8-0.7,1.6-1.6,2.2l-1.6,1.1c-0.9,0.6-1.8,0.9-2.6,0.7C86.3,35.5,85.6,35,85,34.1z M85.7,33.6
			c0.4,0.6,0.9,0.9,1.5,1c0.6,0.1,1.2-0.1,1.8-0.6l1.6-1.2c0.6-0.5,1-1,1.1-1.6c0.1-0.6,0-1.2-0.4-1.8c-0.4-0.6-0.9-0.9-1.5-1
			c-0.6-0.1-1.2,0.1-1.8,0.6l-1.6,1.2c-0.6,0.5-1,1-1.1,1.6C85.2,32.4,85.3,33,85.7,33.6z M94.1,38.7l0.6-0.2l0.3,1l0.2,0.8l0.1,0
			l0.3-0.8l0.5-0.9l0.6,0.3l-0.4,0.9l-0.5,0.7l0.1,0.1l0.8-0.4l1-0.3l0.2,0.6l-1,0.3l-0.8,0.2l0,0.1l0.8,0.3l0.9,0.4l-0.3,0.6
			l-0.9-0.4l-0.7-0.5l-0.1,0.1l0.4,0.8l0.3,1l-0.6,0.2l-0.3-1l-0.2-0.8l-0.1,0l-0.3,0.8l-0.4,0.9l-0.6-0.3l0.4-0.9l0.5-0.7l-0.1-0.1
			L94,41.8l-1,0.3l-0.2-0.6l1-0.3l0.8-0.2l0-0.1l-0.8-0.3l-0.9-0.4l0.3-0.6L94,40l0.7,0.5l0.1-0.1l-0.4-0.8L94.1,38.7z M91.7,50.4
			l8.4-1.6l0,1l-7.8,1.4l0,0.2l7.9,1.3l0.1,1.8l-7.8,1.8l0,0.2l7.8,1l0,1l-8.5-1.1l-0.1-1.8l7.8-1.8l0-0.2l-7.9-1.3L91.7,50.4z
			M91.6,59.8l8.3,1.7l-1,5.1l-0.9-0.2l0.8-4.1L96,61.7l-0.8,3.8l-0.9-0.2l0.8-3.8L92.3,61l-0.8,4.2L90.5,65L91.6,59.8z M90.1,66.2
			l7.9,3.1l-0.4,0.9l-7-2.8l-1.6,4l-0.9-0.3L90.1,66.2z M86,74.4c0.5-0.9,1.2-1.4,2-1.6c0.8-0.2,1.7,0,2.6,0.6l1.6,1
			c0.9,0.6,1.5,1.3,1.7,2.1s0,1.7-0.5,2.5c-0.5,0.8-1.2,1.3-1.9,1.5c-0.8,0.2-1.5,0-2.4-0.5l-0.1,0l0.5-0.8l0.1,0.1
			c0.5,0.3,1.1,0.5,1.6,0.4c0.5-0.1,1-0.4,1.4-1c0.4-0.6,0.5-1.2,0.3-1.8c-0.2-0.6-0.6-1.1-1.2-1.5l-1.7-1.1c-0.7-0.4-1.3-0.6-1.9-0.5
			s-1.1,0.5-1.5,1.1c-0.4,0.6-0.5,1.2-0.3,1.7c0.2,0.5,0.5,0.9,1,1.3l0.2,0.1l-0.5,0.8l-0.1-0.1c-0.8-0.5-1.3-1.2-1.5-1.9
			C85.3,76,85.4,75.2,86,74.4z M81.3,80.2c0.7-0.7,1.5-1.1,2.3-1.1c0.8,0,1.7,0.4,2.5,1.1l1.4,1.4c0.8,0.8,1.2,1.6,1.2,2.4
			c0,0.8-0.4,1.6-1.1,2.3c-0.7,0.7-1.5,1.1-2.3,1.1c-0.8,0-1.7-0.4-2.5-1.1L81.5,85c-0.8-0.8-1.2-1.6-1.2-2.4
			C80.3,81.7,80.6,80.9,81.3,80.2z M82,80.8c-0.5,0.5-0.8,1.1-0.7,1.7c0,0.6,0.3,1.2,0.9,1.7l1.4,1.4c0.6,0.5,1.1,0.8,1.7,0.9
			c0.6,0,1.2-0.2,1.7-0.8c0.5-0.5,0.7-1.1,0.7-1.7s-0.3-1.2-0.9-1.7L85.4,81c-0.6-0.5-1.1-0.8-1.7-0.9C83,80.1,82.5,80.3,82,80.8z
			M78.1,83.7l4.4,7.2l-1.7,1l-6-5.5l-0.1,0.1l2.2,7.9l-1.7,1l-4.4-7.2l0.8-0.5l4.1,6.7l0.1-0.1l-2.2-7.8l1.5-0.9l6,5.5l0.1-0.1
			l-4.1-6.7L78.1,83.7z M69.3,88.6l2.7,8l-5,1.6l-0.3-0.9l4-1.3l-0.9-2.7l-3.7,1.2l-0.3-0.9l3.7-1.2l-0.9-2.7l-4,1.3l-0.3-0.9
			L69.3,88.6z M60.6,96.6l0,0.7l-1,0.1l-0.8-0.1l-0.1,0.1l0.7,0.5l0.8,0.7L59.8,99L59,98.3l-0.6-0.6l-0.1,0.1l0.2,0.8l0.1,1l-0.7,0
			l-0.1-1l0.1-0.8l-0.1-0.1l-0.5,0.7l-0.7,0.8l-0.5-0.4l0.7-0.8l0.6-0.5l-0.1-0.1l-0.8,0.2l-1,0.1l0-0.7l1-0.1l0.8,0l0.1-0.1l-0.7-0.5
			l-0.8-0.7l0.4-0.5l0.8,0.7l0.6,0.6l0.1-0.1l-0.2-0.8l-0.1-1l0.7,0l0.1,1l-0.1,0.8l0.1,0.1l0.5-0.7l0.7-0.8l0.5,0.4l-0.7,0.8
			l-0.6,0.6l0.1,0.1l0.8-0.1L60.6,96.6z M50.7,91l-1.8,8.3l-1-0.2l0.8-3.7l-3.9-0.8l-0.8,3.7l-1-0.2l1.8-8.3l1,0.2l-0.8,3.7l3.9,0.8
			l0.8-3.7L50.7,91z M43.3,89.2l-3.4,7.8l-4.8-2.1l0.4-0.8l3.8,1.7l1.1-2.6l-3.5-1.5l0.4-0.8l3.5,1.5l1.2-2.6l-3.9-1.7l0.4-0.8
			L43.3,89.2z M37.3,86.4l-4.7,7l-0.8-0.6l4.2-6.3l-3.6-2.4l0.5-0.8L37.3,86.4z M32,82.7l-5.9,6.1l-0.7-0.7l5.2-5.4l-3.1-3l0.6-0.7
			L32,82.7z M26,75.7c0.6,0.8,0.8,1.7,0.7,2.5c-0.1,0.8-0.7,1.6-1.6,2.2l-1.6,1.1c-0.9,0.6-1.8,0.9-2.6,0.7c-0.8-0.2-1.5-0.6-2.1-1.5
			c-0.6-0.8-0.8-1.7-0.7-2.5c0.1-0.8,0.7-1.6,1.6-2.2l1.6-1.1c0.9-0.6,1.8-0.9,2.6-0.7S25.5,74.9,26,75.7z M25.3,76.3
			c-0.4-0.6-0.9-0.9-1.5-1c-0.6-0.1-1.2,0.1-1.8,0.6L20.3,77c-0.6,0.5-1,1-1.2,1.5c-0.1,0.6,0,1.2,0.4,1.8c0.4,0.6,0.9,0.9,1.5,1
			c0.6,0.1,1.2-0.1,1.8-0.6l1.6-1.2c0.6-0.5,1-1,1.1-1.6C25.9,77.4,25.7,76.9,25.3,76.3z M16.9,71.2l-0.6,0.2l-0.3-1l-0.2-0.8l-0.1,0
			l-0.3,0.8l-0.5,0.9l-0.6-0.3l0.4-0.9l0.5-0.7l-0.1-0.1l-0.8,0.4l-1,0.3l-0.2-0.6l1-0.3l0.8-0.2l0-0.1l-0.8-0.3l-0.9-0.4l0.3-0.6
			l0.9,0.4l0.7,0.5l0.1-0.1l-0.4-0.8l-0.3-1l0.6-0.2l0.3,1l0.2,0.8l0.1,0l0.3-0.8l0.4-0.9l0.6,0.3l-0.4,0.9l-0.5,0.7l0.1,0.1l0.8-0.4
			l1-0.3l0.2,0.6l-1,0.3l-0.8,0.2l0,0.1l0.8,0.3l0.9,0.4L18,70.3L17,69.9l-0.7-0.5l-0.1,0.1l0.4,0.8L16.9,71.2z M19.4,59.5L11,61.1
			l0-1l7.8-1.4l0-0.2l-7.9-1.3l-0.1-1.8l7.8-1.8l0-0.2l-7.8-1l0-1l8.5,1.1l0.1,1.8l-7.8,1.8l0,0.2l7.9,1.3L19.4,59.5z M19.6,50.1
			l-8.3-1.7l1-5.1l0.9,0.2l-0.8,4.1l2.8,0.6l0.8-3.8l0.9,0.2L16,48.3l2.8,0.6l0.9-4.2l0.9,0.2L19.6,50.1z M21,43.7l-7.9-3.2l0.4-0.9
			l7,2.8l1.6-4l0.9,0.3L21,43.7z M25.2,35.5c-0.5,0.9-1.2,1.4-2,1.6c-0.8,0.2-1.7,0-2.6-0.6l-1.6-1c-0.9-0.6-1.5-1.3-1.7-2.1
			s0-1.7,0.6-2.5c0.5-0.8,1.2-1.3,1.9-1.5s1.5,0,2.4,0.6l0.1,0l-0.5,0.8l-0.1-0.1c-0.5-0.3-1.1-0.5-1.6-0.4c-0.5,0.1-1,0.4-1.4,1
			S18,32.4,18.2,33c0.2,0.6,0.6,1.1,1.2,1.5l1.7,1.1c0.7,0.4,1.3,0.6,1.9,0.5c0.6-0.1,1.1-0.5,1.5-1.1c0.4-0.6,0.5-1.2,0.3-1.7
			c-0.2-0.5-0.5-0.9-1-1.3l-0.2-0.1l0.5-0.8l0.1,0.1c0.8,0.5,1.3,1.2,1.5,1.9C25.9,33.8,25.7,34.6,25.2,35.5z M29.8,29.7
			c-0.7,0.7-1.5,1.1-2.3,1.1c-0.8,0-1.7-0.4-2.5-1.2l-1.4-1.4c-0.8-0.8-1.2-1.6-1.2-2.4c0-0.8,0.4-1.6,1.1-2.3
			c0.7-0.7,1.5-1.1,2.3-1.1s1.7,0.4,2.5,1.2l1.4,1.4c0.8,0.8,1.2,1.6,1.2,2.4C30.9,28.2,30.6,28.9,29.8,29.7z M29.2,29
			c0.5-0.5,0.8-1.1,0.7-1.7c0-0.6-0.3-1.2-0.9-1.7l-1.4-1.4c-0.6-0.5-1.1-0.8-1.7-0.9c-0.6,0-1.2,0.2-1.7,0.8
			c-0.5,0.5-0.7,1.1-0.7,1.7c0,0.6,0.3,1.2,0.9,1.7l1.4,1.4c0.6,0.5,1.1,0.8,1.7,0.9C28.1,29.8,28.7,29.5,29.2,29z M33.1,26.2L28.7,19
			l1.7-1l6,5.5l0.1-0.1l-2.2-7.9l1.7-1l4.4,7.2l-0.8,0.5l-4.1-6.7l-0.1,0.1l2.2,7.8L36,24.5L30,19l-0.1,0.1l4.1,6.7L33.1,26.2z
			M41.9,21.3l-2.6-8l5-1.6l0.3,0.9l-4,1.3l0.9,2.7l3.7-1.2l0.3,0.9l-3.7,1.2l0.9,2.7l4-1.3l0.3,0.9L41.9,21.3z M50.6,13.4l0-0.7
			l1-0.1l0.8,0.1l0.1-0.1l-0.7-0.5L51,11.4l0.4-0.5l0.8,0.7l0.6,0.6l0.1-0.1l-0.2-0.8l-0.1-1l0.7,0l0.1,1l-0.1,0.8l0.1,0.1l0.5-0.7
			l0.7-0.8l0.5,0.4L54.5,12l-0.6,0.5l0.1,0.1l0.8-0.2l1-0.1l0,0.7l-1,0.1l-0.8-0.1l-0.1,0.1l0.7,0.5l0.8,0.7l-0.4,0.5l-0.8-0.7
			l-0.6-0.6l-0.1,0.1l0.2,0.8l0.1,1l-0.7,0l-0.1-1l0.1-0.8l-0.1-0.1l-0.5,0.7L51.7,15l-0.5-0.4l0.7-0.8l0.6-0.6l-0.1-0.1l-0.8,0.1
			L50.6,13.4z"/>
	</g>
</svg>
